<svg id="Layer_1" data-name="Layer 1" xmlns="http://www.w3.org/2000/svg" viewBox="0 0 363.47 368.64"><defs><style>.cls-1,.cls-2{fill:#333;}.cls-2{fill-rule:evenodd;}</style></defs><title>calendar</title><path class="cls-1" d="M64.53,184.88V132.37a42.37,42.37,0,0,1,42.26-42.26h15.54v43.27a17.73,17.73,0,0,0,35.45,0V90.11h177v43.27a17.73,17.73,0,0,0,35.45,0V90.11h15.54A42.37,42.37,0,0,1,428,132.37v52.51Z" transform="translate(-64.53 -62.42)"/><path class="cls-2" d="M106.79,430.59l277.74.46h0A44,44,0,0,0,415,418.38a41.75,41.75,0,0,0,13-29.79V190.64H64.53V388.35a42.39,42.39,0,0,0,42.26,42.24ZM358.7,322.66a5.16,5.16,0,0,1-1.59.75,5.23,5.23,0,0,1-6.45-3.63l-3-10.61a5.23,5.23,0,1,1,10.08-2.83l1.06,3.77,26.73-17.36a5.23,5.23,0,0,1,5.7,8.77L358.7,322.66ZM231.06,379.51V352h30.4v30.4h-30.4v-2.88ZM321.64,323H294.12v-30.4h30.4V323ZM297,382.39h-2.88V352h30.4v30.4H297Zm-129-2.88V352h30.4v30.4H168v-2.88Zm-35.53,2.88H105V352h30.4v30.4Zm98.59-62.31V292.55h30.4V323h-30.4v-2.87ZM170.88,323H168v-30.4h30.4V323H170.88Zm-38.41,0H105v-30.4h30.4V323Zm224.7-62.31V233.12h30.4v30.4h-30.4v-2.88Zm-63.05,0V233.12h30.4v30.4h-30.4v-2.88Zm-63.06,0V233.12h30.4v30.4h-30.4v-2.88Zm-35.54,2.88H168v-30.4h30.4v30.4Z" transform="translate(-64.53 -62.42)"/><path class="cls-2" d="M140.05,62.42h0a12,12,0,0,1,12,12v59a12,12,0,0,1-12,12h0a12,12,0,0,1-12-12v-59a12,12,0,0,1,12-12Zm212.42,82.92h0a12,12,0,0,0,12-12v-59a12,12,0,0,0-12-12h0a12,12,0,0,0-12,12v59A12,12,0,0,0,352.47,145.34Z" transform="translate(-64.53 -62.42)"/></svg>