<svg id="Layer_1" data-name="Layer 1" xmlns="http://www.w3.org/2000/svg" viewBox="0 0 5000 3000"><defs><style>.cls-1{fill:none;}.cls-2{fill:#fff;}</style></defs><title>checkmark</title><rect class="cls-1" width="5000" height="3000"/><path class="cls-2" d="M2059.72,1254a40.38,40.38,0,0,1,57.06,0l492,492a40.33,40.33,0,0,1,0,57l-217.46,217.46a40.39,40.39,0,0,1-57.05,0l-492-491.95a40.32,40.32,0,0,1,0-57Z"/><path class="cls-2" d="M3157.71,1197,2940.26,979.52a40.31,40.31,0,0,0-57,0l-114.62,114.6-.05,0-22.72,22.75L2665.75,1197s-.05.06-.05.09l-548.92,549a40.31,40.31,0,0,0,0,57l217.45,217.45a40.36,40.36,0,0,0,57.05,0l548.88-548.91c.05,0,.1-.06.1-.09L3157.71,1254A40.23,40.23,0,0,0,3157.71,1197Z"/></svg>