<svg xmlns="http://www.w3.org/2000/svg" viewBox="0 0 949 949"><defs><style>.cls-1{fill:#333;}</style></defs><title>person-icon</title><g id="Layer_5" data-name="Layer 5"><path class="cls-1" d="M600.45,163C338.39,163,126,375.44,126,637.5S338.39,1112,600.45,1112,1075,899.56,1075,637.5,862.51,163,600.45,163Zm-2.57,94.89c94.72,0,171.5,75.49,171.5,168.62S692.6,595.14,597.88,595.14s-171.49-75.5-171.49-168.63S503.17,257.89,597.88,257.89ZM257.3,913.53c0-155.84,90.1-289,217.31-342.61C506.2,600.6,549.85,619,598.08,619c48.55,0,92.46-18.63,124.09-48.67C850.18,623.45,941,757.07,941,913.53Z" transform="translate(-125.95 -163)"/></g></svg>